<?xml version="1.0" encoding="UTF-8"?>
<svg xmlns="http://www.w3.org/2000/svg" xmlns:xlink="http://www.w3.org/1999/xlink" width="px" height="px" viewBox="0 0 8 8" version="1.1">
<g id="surface1">
<path style=" stroke:none;fill-rule:nonzero;fill:rgb(93.72549%,58.431373%,27.45098%);fill-opacity:1;" d="M 7.78125 3.046875 C 7.765625 2.996094 7.722656 2.957031 7.671875 2.949219 L 5.148438 2.558594 L 4.019531 0.128906 C 3.996094 0.078125 3.949219 0.046875 3.894531 0.046875 C 3.84375 0.046875 3.792969 0.078125 3.769531 0.128906 L 2.640625 2.558594 L 0.121094 2.949219 C 0.0664062 2.957031 0.0234375 2.996094 0.0078125 3.046875 C -0.0078125 3.101562 0.00390625 3.160156 0.0429688 3.199219 L 1.867188 5.089844 L 1.4375 7.761719 C 1.425781 7.816406 1.449219 7.871094 1.492188 7.90625 C 1.535156 7.9375 1.59375 7.941406 1.636719 7.917969 L 3.894531 6.65625 L 6.152344 7.917969 C 6.171875 7.925781 6.195312 7.933594 6.214844 7.933594 C 6.246094 7.933594 6.273438 7.925781 6.296875 7.90625 C 6.339844 7.871094 6.363281 7.816406 6.351562 7.761719 L 5.921875 5.089844 L 7.746094 3.199219 C 7.785156 3.160156 7.800781 3.101562 7.78125 3.046875 Z M 7.78125 3.046875 "/>
</g>
</svg>
